<svg xmlns="http://www.w3.org/2000/svg" xmlns:xlink="http://www.w3.org/1999/xlink" width="1080" zoomAndPan="magnify" viewBox="0 0 810 809.999993" height="1080" preserveAspectRatio="xMidYMid meet" version="1.0"><defs><g/><clipPath id="2a9e8741a7"><path d="M 81 321.621094 L 195 321.621094 L 195 436 L 81 436 Z M 81 321.621094 " clip-rule="nonzero"/></clipPath><clipPath id="9ff385a484"><path d="M 81 374 L 195 374 L 195 488.121094 L 81 488.121094 Z M 81 374 " clip-rule="nonzero"/></clipPath></defs><g clip-path="url(#2a9e8741a7)"><path fill="#725ac1" d="M 142.363281 435.523438 L 117.738281 435.523438 C 117.738281 434.679688 117.710938 433.832031 117.738281 432.984375 C 117.882812 429.109375 117.492188 425.289062 116.292969 421.59375 C 112.886719 411.113281 105.886719 404.128906 95.496094 400.453125 C 91.160156 398.917969 86.648438 398.738281 82.125 398.671875 C 80.964844 398.652344 80.988281 398.667969 80.988281 397.5625 C 81 391.332031 80.988281 385.101562 81.007812 378.871094 C 81.058594 364.519531 85.703125 351.867188 95.171875 341.019531 C 100.789062 334.585938 107.550781 329.699219 115.378906 326.335938 C 124.613281 322.386719 134.261719 321.039062 144.214844 322.097656 C 157.621094 323.523438 169.132812 329 178.609375 338.570312 C 186.277344 346.3125 191.335938 355.539062 193.660156 366.191406 C 194.546875 370.25 195.039062 374.367188 195.011719 378.546875 C 194.972656 385.109375 195.011719 391.671875 195.03125 398.234375 C 195.03125 398.90625 194.90625 399.207031 194.125 399.226562 C 191.121094 399.292969 188.121094 399.359375 185.203125 398.535156 C 178.660156 396.679688 174.125 392.609375 171.566406 386.308594 C 170.601562 383.921875 170.308594 381.457031 170.285156 378.917969 C 170.246094 373.960938 169.347656 369.15625 167.082031 364.714844 C 162.097656 354.933594 154.25 348.78125 143.355469 346.902344 C 133.847656 345.265625 125.246094 347.609375 117.726562 353.667969 C 110.675781 359.351562 106.617188 366.792969 105.890625 375.734375 C 104.960938 387.1875 109.238281 396.632812 118.179688 403.898438 C 122.714844 407.582031 127.980469 409.726562 133.769531 410.433594 C 136.375 410.746094 139.023438 410.707031 141.65625 410.785156 C 142.214844 410.804688 142.4375 410.925781 142.4375 411.527344 C 142.417969 419.359375 142.421875 427.195312 142.417969 435.039062 C 142.417969 435.171875 142.390625 435.304688 142.363281 435.523438 Z M 142.363281 435.523438 " fill-opacity="1" fill-rule="nonzero"/></g><g clip-path="url(#9ff385a484)"><path fill="#725ac1" d="M 133.628906 374.414062 C 134.320312 374.414062 134.921875 374.414062 135.527344 374.414062 C 142.882812 374.414062 150.238281 374.414062 157.59375 374.402344 C 158.148438 374.402344 158.3125 374.566406 158.3125 375.101562 C 158.3125 377.179688 158.289062 379.257812 158.378906 381.332031 C 158.585938 385.800781 159.898438 389.984375 162.011719 393.902344 C 166.980469 403.109375 174.710938 408.6875 184.945312 410.667969 C 187.941406 411.246094 191.074219 411.140625 194.144531 411.300781 C 194.757812 411.332031 195.046875 411.433594 195.039062 412.117188 C 194.984375 419.539062 195.191406 426.96875 194.867188 434.378906 C 194.273438 448.050781 189.207031 459.984375 179.882812 470.039062 C 171.378906 479.199219 160.945312 484.949219 148.625 487.265625 C 142.929688 488.339844 137.199219 488.53125 131.46875 487.886719 C 119.039062 486.488281 108.164062 481.558594 99.035156 472.996094 C 90.972656 465.441406 85.539062 456.304688 82.804688 445.585938 C 81.566406 440.722656 80.960938 435.8125 81.035156 430.792969 C 81.121094 424.453125 81.039062 418.113281 81 411.773438 C 81 410.972656 81.132812 410.667969 82.046875 410.726562 C 83.925781 410.859375 85.835938 410.679688 87.695312 410.914062 C 95.53125 411.917969 101.148438 415.988281 104.273438 423.296875 C 105.207031 425.476562 105.75 427.761719 105.71875 430.15625 C 105.625 436.117188 106.824219 441.792969 109.824219 446.957031 C 115.300781 456.390625 123.433594 462.042969 134.367188 463.328125 C 144.683594 464.539062 153.542969 461.214844 160.886719 454.027344 C 165.875 449.144531 168.828125 443.121094 169.921875 436.191406 C 172.238281 421.492188 163.644531 406.796875 149.6875 401.453125 C 145.769531 399.953125 141.710938 399.132812 137.484375 399.246094 C 136.511719 399.273438 135.539062 399.167969 134.574219 399.214844 C 133.816406 399.253906 133.589844 399.027344 133.59375 398.246094 C 133.636719 393.597656 133.621094 388.945312 133.621094 384.289062 C 133.621094 381.296875 133.621094 378.304688 133.621094 375.3125 C 133.621094 375.046875 133.621094 374.773438 133.621094 374.414062 Z M 133.628906 374.414062 " fill-opacity="1" fill-rule="nonzero"/></g><g fill="#ffffff" fill-opacity="1"><g transform="translate(213.996818, 441.003895)"><g><path d="M 31.390625 0.734375 C 26.546875 0.734375 22.207031 -0.125 18.375 -1.84375 C 14.550781 -3.5625 11.550781 -5.945312 9.375 -9 C 7.195312 -12.0625 6.070312 -15.59375 6 -19.59375 L 16.21875 -19.59375 C 16.570312 -16.15625 17.992188 -13.257812 20.484375 -10.90625 C 22.972656 -8.550781 26.609375 -7.375 31.390625 -7.375 C 35.953125 -7.375 39.550781 -8.515625 42.1875 -10.796875 C 44.820312 -13.078125 46.140625 -16.007812 46.140625 -19.59375 C 46.140625 -22.394531 45.363281 -24.675781 43.8125 -26.4375 C 42.269531 -28.195312 40.335938 -29.53125 38.015625 -30.4375 C 35.703125 -31.351562 32.582031 -32.335938 28.65625 -33.390625 C 23.800781 -34.648438 19.914062 -35.910156 17 -37.171875 C 14.09375 -38.441406 11.601562 -40.425781 9.53125 -43.125 C 7.457031 -45.832031 6.421875 -49.46875 6.421875 -54.03125 C 6.421875 -58.03125 7.4375 -61.578125 9.46875 -64.671875 C 11.507812 -67.765625 14.375 -70.148438 18.0625 -71.828125 C 21.75 -73.515625 25.976562 -74.359375 30.75 -74.359375 C 37.632812 -74.359375 43.269531 -72.640625 47.65625 -69.203125 C 52.050781 -65.765625 54.53125 -61.203125 55.09375 -55.515625 L 44.546875 -55.515625 C 44.203125 -58.316406 42.726562 -60.785156 40.125 -62.921875 C 37.53125 -65.066406 34.09375 -66.140625 29.8125 -66.140625 C 25.800781 -66.140625 22.53125 -65.101562 20 -63.03125 C 17.476562 -60.96875 16.21875 -58.070312 16.21875 -54.34375 C 16.21875 -51.675781 16.972656 -49.5 18.484375 -47.8125 C 19.992188 -46.132812 21.851562 -44.851562 24.0625 -43.96875 C 26.28125 -43.09375 29.390625 -42.09375 33.390625 -40.96875 C 38.234375 -39.632812 42.128906 -38.316406 45.078125 -37.015625 C 48.023438 -35.722656 50.550781 -33.722656 52.65625 -31.015625 C 54.769531 -28.316406 55.828125 -24.648438 55.828125 -20.015625 C 55.828125 -16.429688 54.878906 -13.054688 52.984375 -9.890625 C 51.085938 -6.734375 48.273438 -4.171875 44.546875 -2.203125 C 40.828125 -0.242188 36.441406 0.734375 31.390625 0.734375 Z M 31.390625 0.734375 "/></g></g></g><g fill="#ffffff" fill-opacity="1"><g transform="translate(275.817547, 441.003895)"><g><path d="M 4.53125 -28.96875 C 4.53125 -34.9375 5.722656 -40.148438 8.109375 -44.609375 C 10.492188 -49.066406 13.8125 -52.523438 18.0625 -54.984375 C 22.3125 -57.441406 27.175781 -58.671875 32.65625 -58.671875 C 39.75 -58.671875 45.59375 -56.945312 50.1875 -53.5 C 54.789062 -50.0625 57.828125 -45.289062 59.296875 -39.1875 L 48.984375 -39.1875 C 47.992188 -42.695312 46.078125 -45.46875 43.234375 -47.5 C 40.390625 -49.539062 36.863281 -50.5625 32.65625 -50.5625 C 27.175781 -50.5625 22.75 -48.679688 19.375 -44.921875 C 16.007812 -41.160156 14.328125 -35.84375 14.328125 -28.96875 C 14.328125 -22.007812 16.007812 -16.632812 19.375 -12.84375 C 22.75 -9.050781 27.175781 -7.15625 32.65625 -7.15625 C 36.863281 -7.15625 40.367188 -8.140625 43.171875 -10.109375 C 45.984375 -12.078125 47.921875 -14.882812 48.984375 -18.53125 L 59.296875 -18.53125 C 57.753906 -12.632812 54.664062 -7.910156 50.03125 -4.359375 C 45.394531 -0.816406 39.601562 0.953125 32.65625 0.953125 C 27.175781 0.953125 22.3125 -0.273438 18.0625 -2.734375 C 13.8125 -5.191406 10.492188 -8.664062 8.109375 -13.15625 C 5.722656 -17.65625 4.53125 -22.925781 4.53125 -28.96875 Z M 4.53125 -28.96875 "/></g></g></g><g fill="#ffffff" fill-opacity="1"><g transform="translate(339.744596, 441.003895)"><g><path d="M 4.53125 -29.078125 C 4.53125 -34.972656 5.722656 -40.148438 8.109375 -44.609375 C 10.492188 -49.066406 13.773438 -52.523438 17.953125 -54.984375 C 22.128906 -57.441406 26.785156 -58.671875 31.921875 -58.671875 C 36.972656 -58.671875 41.359375 -57.582031 45.078125 -55.40625 C 48.796875 -53.226562 51.570312 -50.488281 53.40625 -47.1875 L 53.40625 -57.71875 L 63.09375 -57.71875 L 63.09375 0 L 53.40625 0 L 53.40625 -10.75 C 51.507812 -7.375 48.679688 -4.578125 44.921875 -2.359375 C 41.160156 -0.148438 36.789062 0.953125 31.8125 0.953125 C 26.6875 0.953125 22.050781 -0.3125 17.90625 -2.84375 C 13.757812 -5.375 10.492188 -8.921875 8.109375 -13.484375 C 5.722656 -18.046875 4.53125 -23.242188 4.53125 -29.078125 Z M 53.40625 -28.96875 C 53.40625 -33.320312 52.523438 -37.113281 50.765625 -40.34375 C 49.015625 -43.570312 46.644531 -46.046875 43.65625 -47.765625 C 40.675781 -49.484375 37.394531 -50.34375 33.8125 -50.34375 C 30.226562 -50.34375 26.960938 -49.5 24.015625 -47.8125 C 21.066406 -46.132812 18.710938 -43.675781 16.953125 -40.4375 C 15.203125 -37.207031 14.328125 -33.421875 14.328125 -29.078125 C 14.328125 -24.648438 15.203125 -20.800781 16.953125 -17.53125 C 18.710938 -14.269531 21.066406 -11.78125 24.015625 -10.0625 C 26.960938 -8.34375 30.226562 -7.484375 33.8125 -7.484375 C 37.394531 -7.484375 40.675781 -8.34375 43.65625 -10.0625 C 46.644531 -11.78125 49.015625 -14.269531 50.765625 -17.53125 C 52.523438 -20.800781 53.40625 -24.613281 53.40625 -28.96875 Z M 53.40625 -28.96875 "/></g></g></g><g fill="#ffffff" fill-opacity="1"><g transform="translate(410.938482, 441.003895)"><g><path d="M 31.59375 -49.8125 L 19.484375 -49.8125 L 19.484375 0 L 9.90625 0 L 9.90625 -49.8125 L 2.421875 -49.8125 L 2.421875 -57.71875 L 9.90625 -57.71875 L 9.90625 -61.828125 C 9.90625 -68.285156 11.570312 -73.003906 14.90625 -75.984375 C 18.238281 -78.972656 23.59375 -80.46875 30.96875 -80.46875 L 30.96875 -72.46875 C 26.75 -72.46875 23.78125 -71.640625 22.0625 -69.984375 C 20.34375 -68.335938 19.484375 -65.617188 19.484375 -61.828125 L 19.484375 -57.71875 L 31.59375 -57.71875 Z M 31.59375 -49.8125 "/></g></g></g><g fill="#ffffff" fill-opacity="1"><g transform="translate(445.587574, 441.003895)"><g><path d="M 31.59375 -49.8125 L 19.484375 -49.8125 L 19.484375 0 L 9.90625 0 L 9.90625 -49.8125 L 2.421875 -49.8125 L 2.421875 -57.71875 L 9.90625 -57.71875 L 9.90625 -61.828125 C 9.90625 -68.285156 11.570312 -73.003906 14.90625 -75.984375 C 18.238281 -78.972656 23.59375 -80.46875 30.96875 -80.46875 L 30.96875 -72.46875 C 26.75 -72.46875 23.78125 -71.640625 22.0625 -69.984375 C 20.34375 -68.335938 19.484375 -65.617188 19.484375 -61.828125 L 19.484375 -57.71875 L 31.59375 -57.71875 Z M 31.59375 -49.8125 "/></g></g></g><g fill="#ffffff" fill-opacity="1"><g transform="translate(480.236666, 441.003895)"><g><path d="M 33.28125 0.953125 C 27.875 0.953125 22.972656 -0.273438 18.578125 -2.734375 C 14.191406 -5.191406 10.753906 -8.6875 8.265625 -13.21875 C 5.773438 -17.75 4.53125 -23 4.53125 -28.96875 C 4.53125 -34.863281 5.8125 -40.078125 8.375 -44.609375 C 10.9375 -49.140625 14.425781 -52.613281 18.84375 -55.03125 C 23.269531 -57.457031 28.222656 -58.671875 33.703125 -58.671875 C 39.179688 -58.671875 44.128906 -57.457031 48.546875 -55.03125 C 52.972656 -52.613281 56.46875 -49.15625 59.03125 -44.65625 C 61.59375 -40.164062 62.875 -34.9375 62.875 -28.96875 C 62.875 -23 61.554688 -17.75 58.921875 -13.21875 C 56.296875 -8.6875 52.734375 -5.191406 48.234375 -2.734375 C 43.742188 -0.273438 38.757812 0.953125 33.28125 0.953125 Z M 33.28125 -7.484375 C 36.71875 -7.484375 39.945312 -8.289062 42.96875 -9.90625 C 45.988281 -11.519531 48.425781 -13.941406 50.28125 -17.171875 C 52.144531 -20.398438 53.078125 -24.332031 53.078125 -28.96875 C 53.078125 -33.601562 52.164062 -37.535156 50.34375 -40.765625 C 48.519531 -43.992188 46.132812 -46.394531 43.1875 -47.96875 C 40.238281 -49.550781 37.039062 -50.34375 33.59375 -50.34375 C 30.082031 -50.34375 26.867188 -49.550781 23.953125 -47.96875 C 21.046875 -46.394531 18.710938 -43.992188 16.953125 -40.765625 C 15.203125 -37.535156 14.328125 -33.601562 14.328125 -28.96875 C 14.328125 -24.257812 15.1875 -20.289062 16.90625 -17.0625 C 18.625 -13.832031 20.921875 -11.425781 23.796875 -9.84375 C 26.679688 -8.269531 29.84375 -7.484375 33.28125 -7.484375 Z M 33.28125 -7.484375 "/></g></g></g><g fill="#ffffff" fill-opacity="1"><g transform="translate(547.639159, 441.003895)"><g><path d="M 17.6875 -77.9375 L 17.6875 0 L 8.109375 0 L 8.109375 -77.9375 Z M 17.6875 -77.9375 "/></g></g></g><g fill="#ffffff" fill-opacity="1"><g transform="translate(573.547003, 441.003895)"><g><path d="M 4.53125 -29.078125 C 4.53125 -34.972656 5.722656 -40.148438 8.109375 -44.609375 C 10.492188 -49.066406 13.773438 -52.523438 17.953125 -54.984375 C 22.128906 -57.441406 26.816406 -58.671875 32.015625 -58.671875 C 36.515625 -58.671875 40.691406 -57.632812 44.546875 -55.5625 C 48.410156 -53.488281 51.363281 -50.765625 53.40625 -47.390625 L 53.40625 -77.9375 L 63.09375 -77.9375 L 63.09375 0 L 53.40625 0 L 53.40625 -10.84375 C 51.507812 -7.40625 48.695312 -4.578125 44.96875 -2.359375 C 41.25 -0.148438 36.898438 0.953125 31.921875 0.953125 C 26.785156 0.953125 22.128906 -0.3125 17.953125 -2.84375 C 13.773438 -5.375 10.492188 -8.921875 8.109375 -13.484375 C 5.722656 -18.046875 4.53125 -23.242188 4.53125 -29.078125 Z M 53.40625 -28.96875 C 53.40625 -33.320312 52.523438 -37.113281 50.765625 -40.34375 C 49.015625 -43.570312 46.644531 -46.046875 43.65625 -47.765625 C 40.675781 -49.484375 37.394531 -50.34375 33.8125 -50.34375 C 30.226562 -50.34375 26.960938 -49.5 24.015625 -47.8125 C 21.066406 -46.132812 18.710938 -43.675781 16.953125 -40.4375 C 15.203125 -37.207031 14.328125 -33.421875 14.328125 -29.078125 C 14.328125 -24.648438 15.203125 -20.800781 16.953125 -17.53125 C 18.710938 -14.269531 21.066406 -11.78125 24.015625 -10.0625 C 26.960938 -8.34375 30.226562 -7.484375 33.8125 -7.484375 C 37.394531 -7.484375 40.675781 -8.34375 43.65625 -10.0625 C 46.644531 -11.78125 49.015625 -14.269531 50.765625 -17.53125 C 52.523438 -20.800781 53.40625 -24.613281 53.40625 -28.96875 Z M 53.40625 -28.96875 "/></g></g></g><g fill="#ffffff" fill-opacity="1"><g transform="translate(644.740877, 441.003895)"><g><path d="M 60.78125 -31.078125 C 60.78125 -29.242188 60.671875 -27.3125 60.453125 -25.28125 L 14.328125 -25.28125 C 14.671875 -19.59375 16.613281 -15.148438 20.15625 -11.953125 C 23.707031 -8.753906 28.015625 -7.15625 33.078125 -7.15625 C 37.210938 -7.15625 40.664062 -8.117188 43.4375 -10.046875 C 46.21875 -11.984375 48.171875 -14.566406 49.296875 -17.796875 L 59.609375 -17.796875 C 58.066406 -12.253906 54.976562 -7.742188 50.34375 -4.265625 C 45.707031 -0.785156 39.953125 0.953125 33.078125 0.953125 C 27.597656 0.953125 22.695312 -0.273438 18.375 -2.734375 C 14.0625 -5.191406 10.675781 -8.6875 8.21875 -13.21875 C 5.757812 -17.75 4.53125 -23 4.53125 -28.96875 C 4.53125 -34.9375 5.722656 -40.164062 8.109375 -44.65625 C 10.492188 -49.15625 13.84375 -52.613281 18.15625 -55.03125 C 22.476562 -57.457031 27.453125 -58.671875 33.078125 -58.671875 C 38.546875 -58.671875 43.382812 -57.472656 47.59375 -55.078125 C 51.8125 -52.691406 55.0625 -49.410156 57.34375 -45.234375 C 59.632812 -41.054688 60.78125 -36.335938 60.78125 -31.078125 Z M 50.875 -33.078125 C 50.875 -36.722656 50.066406 -39.863281 48.453125 -42.5 C 46.835938 -45.132812 44.640625 -47.132812 41.859375 -48.5 C 39.085938 -49.875 36.019531 -50.5625 32.65625 -50.5625 C 27.8125 -50.5625 23.6875 -49.015625 20.28125 -45.921875 C 16.875 -42.828125 14.925781 -38.546875 14.4375 -33.078125 Z M 50.875 -33.078125 "/></g></g></g><g fill="#ffffff" fill-opacity="1"><g transform="translate(710.037016, 441.003895)"><g><path d="M 17.6875 -48.34375 C 19.375 -51.644531 21.78125 -54.207031 24.90625 -56.03125 C 28.03125 -57.851562 31.84375 -58.765625 36.34375 -58.765625 L 36.34375 -48.875 L 33.8125 -48.875 C 23.0625 -48.875 17.6875 -43.046875 17.6875 -31.390625 L 17.6875 0 L 8.109375 0 L 8.109375 -57.71875 L 17.6875 -57.71875 Z M 17.6875 -48.34375 "/></g></g></g></svg>