<svg width="50" height="50" viewBox="0 0 50 50" fill="none" xmlns="http://www.w3.org/2000/svg">
<path d="M8.48832 6.23708C8.60963 4.09106 9.12226 3.15785 10.5923 2.40846C12.1741 1.60187 14.6689 1.97723 17.6044 3.46377C18.8689 4.10435 18.9976 4.1174 21.2135 3.83329C24.1589 3.45552 27.9508 3.45685 30.6694 3.83675C32.7252 4.12404 32.8602 4.10969 34.1277 3.46777C38.2946 1.35767 41.5844 1.49573 42.7756 3.83063C43.3702 4.99608 43.4806 8.02023 43.0196 10.5145C42.7639 11.8973 42.791 12.0699 43.4069 12.9773C47.7396 19.3622 44.6177 29.7117 37.1933 33.574C36.6252 33.8696 36.1464 34.0525 35.7562 34.2015C34.5581 34.659 34.1944 34.7979 34.6348 36.9038C34.8469 37.9167 35.1023 40.435 35.2027 42.5004C35.3842 46.2337 35.3814 46.2598 34.7267 47.0215C33.8354 48.0575 32.5508 48.075 31.6804 47.0629C31.1127 46.4029 31.0573 46.0913 31.0573 43.5448C31.0573 39.7817 30.6448 37.2804 29.6702 35.1371C28.5112 32.5865 29.3704 31.6354 32.0208 31.0654C35.7048 30.2729 38.5821 27.9994 40.1858 24.6138C41.7106 21.3954 41.9404 16.9479 39.1837 14.2431C38.3998 13.3115 38.3452 12.4676 38.905 9.9231C39.1142 8.97208 39.2896 7.74517 39.2948 7.19635C39.3027 6.32965 39.2237 6.19877 38.6914 6.19877C38.3546 6.19877 37.0675 6.68879 35.8317 7.2876L33.8592 8.24365C33.6798 8.33054 33.4792 8.36396 33.2812 8.34125C28.2656 7.76554 23.4998 7.75665 18.4596 8.3435C18.2609 8.36662 18.0594 8.33321 17.8795 8.24588L15.908 7.28921C14.672 6.68931 13.385 6.19877 13.0483 6.19877C12.2696 6.19877 12.2579 6.77365 12.9676 10.1891C13.4012 12.2751 13.6929 12.7399 12.4396 14.4078C10.5609 16.9078 10.0917 20.0123 11.0991 23.2742C12.3688 27.3846 15.4781 30.1615 19.8494 31.0879C22.4846 31.6465 23.1733 32.3752 22.1671 35.3969C21.375 37.7748 20.8742 38.3877 19.723 38.3877C18.1743 38.3877 17.2041 37.046 17.738 35.6421C17.9732 35.0233 17.9032 34.9573 16.4523 34.4281C12.0233 32.8133 8.63569 29.194 7.0869 24.4215C5.8898 20.733 6.41653 15.9321 8.33696 13.0303C8.99084 12.0422 9.00096 11.9585 8.69582 10.067C8.52317 8.99629 8.4298 7.27298 8.48832 6.23708Z" fill="#ffffff"/>
<path d="M6.94174 33.2196C6.30351 32.2623 5.01003 32.0035 4.05268 32.6419C3.09534 33.28 2.83664 34.5735 3.47487 35.5308C3.94605 36.2377 4.50974 36.8183 4.98843 37.2969C5.07668 37.3852 5.16243 37.4704 5.24616 37.5535C5.64714 37.9519 6.00118 38.3035 6.35676 38.721C7.14324 39.6442 7.92785 40.8875 8.37376 43.1171C8.57239 44.1102 9.28624 44.6452 9.68178 44.879C10.1107 45.1323 10.5794 45.2817 10.9651 45.379C11.7541 45.5779 12.7119 45.6812 13.6208 45.7415C14.6187 45.8077 15.6998 45.8292 16.6667 45.835C16.6674 46.9848 17.5998 47.9169 18.75 47.9169C19.9006 47.9169 20.8333 46.9842 20.8333 45.8335V43.7502C20.8333 42.5996 19.9006 41.6669 18.75 41.6669C18.5536 41.6669 18.3411 41.6675 18.116 41.6683C16.8934 41.6721 15.2998 41.6769 13.8962 41.584C13.2194 41.5392 12.663 41.4756 12.255 41.3979C11.6267 38.9315 10.6117 37.2904 9.52862 36.019C9.04982 35.4571 8.55403 34.9654 8.15076 34.5654C8.07526 34.4906 8.00301 34.419 7.9347 34.3506C7.46939 33.8854 7.16501 33.5546 6.94174 33.2196Z" fill="#ffffff"/>
</svg>
