<svg width="152" height="223" viewBox="0 0 152 223" fill="none" xmlns="http://www.w3.org/2000/svg">
<mask id="mask0_253_88" style="mask-type:luminance" maskUnits="userSpaceOnUse" x="0" y="0" width="152" height="154">
<path d="M0 0.828125H152V153.333H0V0.828125Z" fill="white"/>
</mask>
<g mask="url(#mask0_253_88)">
<path d="M81.8178 152.697H48.9844C48.9844 151.572 48.948 150.442 48.9844 149.312C49.1771 144.145 48.6563 139.052 47.0573 134.124C42.5157 120.15 33.1823 110.838 19.3282 105.937C13.5469 103.89 7.5313 103.65 1.50005 103.562C-0.0468275 103.536 -0.0155779 103.557 -0.0155779 102.083C4.74617e-05 93.7755 -0.0155775 85.4682 0.0104638 77.1609C0.0781731 58.0255 6.27088 41.1557 18.8959 26.6921C26.3855 18.114 35.4011 11.5984 45.8386 7.11402C58.1511 1.84839 71.0157 0.0515188 84.2865 1.46298C102.162 3.36402 117.51 10.6661 130.146 23.4265C140.37 33.7494 147.115 46.0515 150.214 60.2546C151.396 65.6661 152.052 71.1557 152.016 76.7286C151.964 85.4786 152.016 94.2286 152.042 102.979C152.042 103.874 151.875 104.275 150.833 104.302C146.828 104.39 142.828 104.479 138.938 103.38C130.214 100.906 124.167 95.4786 120.755 87.0776C119.469 83.8953 119.078 80.6088 119.047 77.2234C118.995 70.614 117.797 64.2078 114.776 58.2859C108.13 45.2442 97.6667 37.0411 83.1407 34.5359C70.4636 32.3536 58.9948 35.4786 48.9688 43.5567C39.5678 51.1349 34.1563 61.0567 33.1875 72.9786C31.948 88.2494 37.6511 100.843 49.573 110.531C55.6198 115.442 62.6407 118.302 70.3594 119.244C73.8334 119.661 77.3646 119.609 80.875 119.713C81.6198 119.739 81.9167 119.9 81.9167 120.703C81.8907 131.145 81.8959 141.593 81.8907 152.052C81.8907 152.229 81.8542 152.406 81.8178 152.697Z" fill="#725AC1"/>
</g>
<mask id="mask1_253_88" style="mask-type:luminance" maskUnits="userSpaceOnUse" x="0" y="70" width="152" height="153">
<path d="M0 70.666H152V222.827H0V70.666Z" fill="white"/>
</mask>
<g mask="url(#mask1_253_88)">
<path d="M70.1719 71.2188C71.0938 71.2188 71.8958 71.2188 72.7031 71.2188C82.5104 71.2188 92.3177 71.2187 102.125 71.2031C102.865 71.2031 103.083 71.4219 103.083 72.1354C103.083 74.9063 103.052 77.6771 103.172 80.4427C103.448 86.401 105.198 91.9792 108.016 97.2031C114.641 109.479 124.948 116.917 138.594 119.557C142.589 120.328 146.766 120.188 150.859 120.401C151.677 120.443 152.063 120.578 152.052 121.49C151.979 131.385 152.255 141.292 151.823 151.172C151.031 169.401 144.276 185.313 131.844 198.719C120.505 210.932 106.594 218.599 90.1667 221.688C82.5729 223.12 74.9323 223.375 67.2917 222.516C50.7188 220.651 36.2188 214.078 24.0469 202.661C13.2969 192.589 6.05208 180.406 2.40625 166.115C0.755207 159.63 -0.0520823 153.083 0.046875 146.391C0.161459 137.938 0.0520827 129.484 0 121.031C0 119.964 0.177083 119.557 1.39583 119.635C3.90104 119.813 6.44792 119.573 8.92708 119.885C19.375 121.224 26.8646 126.651 31.0313 136.396C32.276 139.302 33 142.349 32.9583 145.542C32.8333 153.49 34.4323 161.057 38.4323 167.943C45.7344 180.521 56.5781 188.057 71.1563 189.771C84.9115 191.385 96.724 186.953 106.516 177.37C113.167 170.859 117.104 162.828 118.563 153.589C121.651 133.99 110.193 114.396 91.5833 107.271C86.3594 105.271 80.9479 104.177 75.3125 104.328C74.0156 104.365 72.7188 104.224 71.4323 104.286C70.4219 104.339 70.1198 104.036 70.125 102.995C70.1823 96.7969 70.1615 90.5938 70.1615 84.3854C70.1615 80.3958 70.1615 76.4063 70.1615 72.4167C70.1615 72.0625 70.1615 71.6979 70.1615 71.2188H70.1719Z" fill="#725AC1"/>
</g>
</svg>
