<svg width="888" height="223" viewBox="0 0 888 223" fill="none" xmlns="http://www.w3.org/2000/svg">
<mask id="mask0_256_109" style="mask-type:luminance" maskUnits="userSpaceOnUse" x="0" y="0" width="152" height="154">
<path d="M0 0.828125H152V153.333H0V0.828125Z" fill="white"/>
</mask>
<g mask="url(#mask0_256_109)">
<path d="M81.8178 152.697H48.9844C48.9844 151.572 48.948 150.442 48.9844 149.312C49.1771 144.145 48.6563 139.052 47.0573 134.124C42.5157 120.15 33.1823 110.838 19.3282 105.937C13.5469 103.89 7.5313 103.65 1.50005 103.562C-0.0468275 103.536 -0.0155779 103.557 -0.0155779 102.083C4.74617e-05 93.7755 -0.0155775 85.4682 0.0104638 77.1609C0.0781731 58.0255 6.27088 41.1557 18.8959 26.6921C26.3855 18.114 35.4011 11.5984 45.8386 7.11402C58.1511 1.84839 71.0157 0.0515188 84.2865 1.46298C102.162 3.36402 117.51 10.6661 130.146 23.4265C140.37 33.7494 147.115 46.0515 150.214 60.2546C151.396 65.6661 152.052 71.1557 152.016 76.7286C151.964 85.4786 152.016 94.2286 152.042 102.979C152.042 103.874 151.875 104.275 150.833 104.302C146.828 104.39 142.828 104.479 138.938 103.38C130.214 100.906 124.167 95.4786 120.755 87.0776C119.469 83.8953 119.078 80.6088 119.047 77.2234C118.995 70.614 117.797 64.2078 114.776 58.2859C108.13 45.2442 97.6667 37.0411 83.1407 34.5359C70.4636 32.3536 58.9948 35.4786 48.9688 43.5567C39.5678 51.1349 34.1563 61.0567 33.1875 72.9786C31.948 88.2494 37.6511 100.843 49.573 110.531C55.6198 115.442 62.6407 118.302 70.3594 119.244C73.8334 119.661 77.3646 119.609 80.875 119.713C81.6198 119.739 81.9167 119.9 81.9167 120.703C81.8907 131.145 81.8959 141.593 81.8907 152.052C81.8907 152.229 81.8542 152.406 81.8178 152.697Z" fill="#725AC1"/>
</g>
<mask id="mask1_256_109" style="mask-type:luminance" maskUnits="userSpaceOnUse" x="0" y="70" width="152" height="153">
<path d="M0 70.666H152V222.827H0V70.666Z" fill="white"/>
</mask>
<g mask="url(#mask1_256_109)">
<path d="M70.1719 71.2188C71.0938 71.2188 71.8958 71.2188 72.7031 71.2188C82.5104 71.2188 92.3177 71.2187 102.125 71.2031C102.865 71.2031 103.083 71.4219 103.083 72.1354C103.083 74.9063 103.052 77.6771 103.172 80.4427C103.448 86.401 105.198 91.9792 108.016 97.2031C114.641 109.479 124.948 116.917 138.594 119.557C142.589 120.328 146.766 120.188 150.859 120.401C151.677 120.443 152.063 120.578 152.052 121.49C151.979 131.385 152.255 141.292 151.823 151.172C151.031 169.401 144.276 185.313 131.844 198.719C120.505 210.932 106.594 218.599 90.1667 221.688C82.5729 223.12 74.9323 223.375 67.2917 222.516C50.7188 220.651 36.2188 214.078 24.0469 202.661C13.2969 192.589 6.05208 180.406 2.40625 166.115C0.755207 159.63 -0.0520823 153.083 0.046875 146.391C0.161459 137.938 0.0520827 129.484 0 121.031C0 119.964 0.177083 119.557 1.39583 119.635C3.90104 119.813 6.44792 119.573 8.92708 119.885C19.375 121.224 26.8646 126.651 31.0313 136.396C32.276 139.302 33 142.349 32.9583 145.542C32.8333 153.49 34.4323 161.057 38.4323 167.943C45.7344 180.521 56.5781 188.057 71.1563 189.771C84.9115 191.385 96.724 186.953 106.516 177.37C113.167 170.859 117.104 162.828 118.563 153.589C121.651 133.99 110.193 114.396 91.5833 107.271C86.3594 105.271 80.9479 104.177 75.3125 104.328C74.0156 104.365 72.7188 104.224 71.4323 104.286C70.4219 104.339 70.1198 104.036 70.125 102.995C70.1823 96.7969 70.1615 90.5938 70.1615 84.3854C70.1615 80.3958 70.1615 76.4063 70.1615 72.4167C70.1615 72.0625 70.1615 71.6979 70.1615 71.2188H70.1719Z" fill="#725AC1"/>
</g>
<path d="M219.183 160.984C212.725 160.984 206.938 159.839 201.829 157.547C196.73 155.255 192.73 152.078 189.829 148.005C186.923 143.922 185.423 139.214 185.329 133.88H198.954C199.423 138.464 201.319 142.328 204.642 145.464C207.959 148.604 212.808 150.172 219.183 150.172C225.267 150.172 230.063 148.651 233.579 145.609C237.09 142.568 238.85 138.661 238.85 133.88C238.85 130.146 237.813 127.104 235.746 124.755C233.688 122.411 231.11 120.63 228.017 119.422C224.933 118.203 220.772 116.891 215.537 115.484C209.063 113.807 203.881 112.125 199.996 110.443C196.121 108.75 192.798 106.104 190.037 102.505C187.272 98.8958 185.892 94.0469 185.892 87.9635C185.892 82.6302 187.246 77.901 189.954 73.776C192.673 69.651 196.496 66.474 201.412 64.2344C206.329 61.9844 211.965 60.8594 218.329 60.8594C227.506 60.8594 235.022 63.151 240.871 67.7344C246.73 72.3177 250.037 78.401 250.787 85.9844H236.725C236.267 82.25 234.298 78.9583 230.829 76.1094C227.371 73.25 222.787 71.8177 217.079 71.8177C211.73 71.8177 207.371 73.2031 203.996 75.9635C200.631 78.7135 198.954 82.5781 198.954 87.5469C198.954 91.1042 199.959 94.0052 201.975 96.2552C203.985 98.4948 206.465 100.203 209.412 101.38C212.371 102.547 216.517 103.88 221.85 105.38C228.308 107.161 233.501 108.917 237.433 110.651C241.36 112.375 244.73 115.042 247.537 118.651C250.355 122.25 251.767 127.141 251.767 133.318C251.767 138.099 250.501 142.599 247.975 146.818C245.444 151.026 241.694 154.443 236.725 157.068C231.767 159.682 225.918 160.984 219.183 160.984Z" fill="white"/>
<path d="M265.799 121.38C265.799 113.421 267.387 106.473 270.57 100.525C273.747 94.5827 278.174 89.9733 283.84 86.6921C289.507 83.416 295.992 81.7754 303.299 81.7754C312.757 81.7754 320.549 84.0775 326.674 88.6712C332.809 93.2546 336.861 99.6191 338.82 107.755H325.07C323.747 103.077 321.195 99.3796 317.403 96.6712C313.611 93.9525 308.908 92.5879 303.299 92.5879C295.992 92.5879 290.09 95.0983 285.59 100.109C281.101 105.124 278.861 112.213 278.861 121.38C278.861 130.661 281.101 137.827 285.59 142.88C290.09 147.937 295.992 150.463 303.299 150.463C308.908 150.463 313.58 149.15 317.32 146.525C321.07 143.9 323.653 140.161 325.07 135.296H338.82C336.762 143.161 332.643 149.458 326.465 154.192C320.283 158.916 312.559 161.275 303.299 161.275C295.992 161.275 289.507 159.64 283.84 156.359C278.174 153.083 273.747 148.452 270.57 142.463C267.387 136.463 265.799 129.437 265.799 121.38Z" fill="white"/>
<path d="M351.034 121.234C351.034 113.374 352.623 106.473 355.805 100.525C358.982 94.5827 363.357 89.9733 368.93 86.6921C374.498 83.416 380.706 81.7754 387.555 81.7754C394.289 81.7754 400.138 83.2285 405.097 86.1296C410.055 89.0358 413.753 92.6868 416.201 97.0879V83.0462H429.118V160.005H416.201V145.671C413.67 150.171 409.899 153.9 404.888 156.859C399.873 159.807 394.045 161.275 387.409 161.275C380.576 161.275 374.394 159.588 368.868 156.213C363.336 152.838 358.982 148.109 355.805 142.025C352.623 135.942 351.034 129.015 351.034 121.234ZM416.201 121.38C416.201 115.577 415.024 110.52 412.68 106.213C410.347 101.911 407.185 98.6087 403.201 96.3171C399.227 94.0254 394.852 92.8796 390.076 92.8796C385.295 92.8796 380.94 94.0046 377.013 96.2546C373.081 98.4941 369.94 101.77 367.597 106.088C365.263 110.395 364.097 115.442 364.097 121.234C364.097 127.14 365.263 132.27 367.597 136.63C369.94 140.979 373.081 144.296 377.013 146.588C380.94 148.88 385.295 150.025 390.076 150.025C394.852 150.025 399.227 148.88 403.201 146.588C407.185 144.296 410.347 140.979 412.68 136.63C415.024 132.27 416.201 127.187 416.201 121.38Z" fill="white"/>
<path d="M482.043 93.5879H465.897V160.005H453.127V93.5879H443.147V83.0462H453.127V77.5671C453.127 68.9577 455.345 62.666 459.793 58.6921C464.236 54.7077 471.377 52.7129 481.21 52.7129V63.3796C475.585 63.3796 471.627 64.4837 469.335 66.6921C467.043 68.89 465.897 72.515 465.897 77.5671V83.0462H482.043V93.5879Z" fill="white"/>
<path d="M528.242 93.5879H512.096V160.005H499.325V93.5879H489.346V83.0462H499.325V77.5671C499.325 68.9577 501.544 62.666 505.992 58.6921C510.434 54.7077 517.575 52.7129 527.408 52.7129V63.3796C521.783 63.3796 517.825 64.4837 515.533 66.6921C513.242 68.89 512.096 72.515 512.096 77.5671V83.0462H528.242V93.5879Z" fill="white"/>
<path d="M576.691 161.275C569.482 161.275 562.946 159.64 557.087 156.359C551.238 153.083 546.654 148.421 543.337 142.38C540.014 136.338 538.357 129.338 538.357 121.38C538.357 113.52 540.066 106.567 543.482 100.525C546.899 94.4837 551.55 89.8535 557.441 86.6296C563.342 83.3952 569.946 81.7754 577.253 81.7754C584.555 81.7754 591.154 83.3952 597.045 86.6296C602.946 89.8535 607.607 94.4629 611.024 100.463C614.441 106.452 616.149 113.421 616.149 121.38C616.149 129.338 614.389 136.338 610.878 142.38C607.378 148.421 602.628 153.083 596.628 156.359C590.639 159.64 583.993 161.275 576.691 161.275ZM576.691 150.025C581.274 150.025 585.576 148.952 589.607 146.796C593.633 144.645 596.883 141.416 599.357 137.109C601.842 132.807 603.087 127.562 603.087 121.38C603.087 115.202 601.868 109.958 599.441 105.65C597.008 101.348 593.826 98.1452 589.899 96.0462C585.967 93.9368 581.701 92.8796 577.107 92.8796C572.425 92.8796 568.139 93.9368 564.253 96.0462C560.378 98.1452 557.264 101.348 554.92 105.65C552.587 109.958 551.42 115.202 551.42 121.38C551.42 127.661 552.566 132.952 554.857 137.255C557.149 141.562 560.212 144.77 564.045 146.88C567.889 148.979 572.107 150.025 576.691 150.025Z" fill="white"/>
<path d="M645.769 56.0879V160.005H632.998V56.0879H645.769Z" fill="white"/>
<path d="M662.771 121.234C662.771 113.374 664.36 106.473 667.542 100.525C670.719 94.5827 675.094 89.9733 680.667 86.6921C686.235 83.416 692.485 81.7754 699.417 81.7754C705.417 81.7754 710.985 83.1608 716.126 85.9212C721.277 88.6869 725.214 92.3171 727.938 96.8171V56.0879H740.855V160.005H727.938V145.546C725.407 150.13 721.657 153.9 716.688 156.859C711.73 159.807 705.928 161.275 699.292 161.275C692.443 161.275 686.235 159.588 680.667 156.213C675.094 152.838 670.719 148.109 667.542 142.025C664.36 135.942 662.771 129.015 662.771 121.234ZM727.938 121.38C727.938 115.577 726.761 110.52 724.417 106.213C722.084 101.911 718.923 98.6087 714.938 96.3171C710.964 94.0254 706.589 92.8796 701.813 92.8796C697.032 92.8796 692.678 94.0046 688.751 96.2546C684.818 98.4941 681.678 101.77 679.334 106.088C677.001 110.395 675.834 115.442 675.834 121.234C675.834 127.14 677.001 132.27 679.334 136.63C681.678 140.979 684.818 144.296 688.751 146.588C692.678 148.88 697.032 150.025 701.813 150.025C706.589 150.025 710.964 148.88 714.938 146.588C718.923 144.296 722.084 140.979 724.417 136.63C726.761 132.27 727.938 127.187 727.938 121.38Z" fill="white"/>
<path d="M832.696 118.567C832.696 121.015 832.55 123.588 832.259 126.296H770.759C771.217 133.88 773.806 139.807 778.53 144.067C783.264 148.333 789.009 150.463 795.759 150.463C801.269 150.463 805.873 149.182 809.571 146.609C813.28 144.025 815.884 140.583 817.384 136.275H831.134C829.076 143.666 824.957 149.682 818.78 154.317C812.597 158.958 804.925 161.275 795.759 161.275C788.451 161.275 781.915 159.64 776.155 156.359C770.405 153.083 765.889 148.421 762.613 142.38C759.332 136.338 757.696 129.338 757.696 121.38C757.696 113.421 759.285 106.452 762.467 100.463C765.644 94.4629 770.113 89.8535 775.863 86.6296C781.623 83.3952 788.259 81.7754 795.759 81.7754C803.05 81.7754 809.498 83.3743 815.113 86.5671C820.738 89.7493 825.071 94.1243 828.113 99.6921C831.165 105.265 832.696 111.557 832.696 118.567ZM819.488 115.9C819.488 111.041 818.41 106.854 816.259 103.338C814.103 99.8275 811.175 97.1608 807.467 95.3379C803.769 93.5046 799.681 92.5879 795.196 92.5879C788.738 92.5879 783.238 94.6504 778.696 98.7754C774.155 102.9 771.556 108.609 770.905 115.9H819.488Z" fill="white"/>
<path d="M862.299 95.5462C864.549 91.1452 867.757 87.7285 871.924 85.2962C876.091 82.8691 881.174 81.6504 887.174 81.6504V94.8379H883.799C869.466 94.8379 862.299 102.609 862.299 118.15V160.005H849.528V83.0462H862.299V95.5462Z" fill="white"/>
</svg>
